<?xml version="1.0" encoding="UTF-8" standalone="no"?>
<!DOCTYPE svg PUBLIC "-//W3C//DTD SVG 1.1//EN"
 "http://www.w3.org/Graphics/SVG/1.1/DTD/svg11.dtd">
<!-- Generated by graphviz version 2.36.0 (20140111.2315)
 -->
<!-- Title: null Pages: 1 -->
<svg width="703pt" height="476pt"
 viewBox="0.00 0.00 703.00 476.00" xmlns="http://www.w3.org/2000/svg" xmlns:xlink="http://www.w3.org/1999/xlink">
<g id="graph0" class="graph" transform="scale(1 1) rotate(0) translate(4 472)">
<title>null</title>
<polygon fill="white" stroke="none" points="-4,4 -4,-472 699,-472 699,4 -4,4"/>
<!-- ACVR2A -->
<g id="node1" class="node"><title>ACVR2A</title>
<ellipse fill="none" stroke="black" cx="262" cy="-378" rx="46.2191" ry="18"/>
<text text-anchor="middle" x="262" y="-374.3" font-family="Times,serif" font-size="14.00">ACVR2A</text>
</g>
<!-- APC -->
<g id="node3" class="node"><title>APC</title>
<ellipse fill="none" stroke="black" cx="134" cy="-306" rx="27.4223" ry="18"/>
<text text-anchor="middle" x="134" y="-302.3" font-family="Times,serif" font-size="14.00">APC</text>
</g>
<!-- ACVR2A&#45;&gt;APC -->
<g id="edge1" class="edge"><title>ACVR2A&#45;&gt;APC</title>
<path fill="none" stroke="black" d="M236.405,-363.003C215.339,-351.482 185.463,-335.144 163.415,-323.086"/>
<polygon fill="black" stroke="black" points="164.946,-319.935 154.493,-318.207 161.588,-326.076 164.946,-319.935"/>
</g>
<!-- ATM -->
<g id="node5" class="node"><title>ATM</title>
<ellipse fill="none" stroke="black" cx="314" cy="-306" rx="30.3206" ry="18"/>
<text text-anchor="middle" x="314" y="-302.3" font-family="Times,serif" font-size="14.00">ATM</text>
</g>
<!-- ACVR2A&#45;&gt;ATM -->
<g id="edge2" class="edge"><title>ACVR2A&#45;&gt;ATM</title>
<path fill="none" stroke="black" d="M274.323,-360.411C280.827,-351.655 288.928,-340.751 296.11,-331.082"/>
<polygon fill="black" stroke="black" points="298.969,-333.103 302.123,-322.988 293.35,-328.928 298.969,-333.103"/>
</g>
<!-- RPL22 -->
<g id="node14" class="node"><title>RPL22</title>
<ellipse fill="none" stroke="black" cx="255" cy="-162" rx="35.6194" ry="18"/>
<text text-anchor="middle" x="255" y="-158.3" font-family="Times,serif" font-size="14.00">RPL22</text>
</g>
<!-- ACVR2A&#45;&gt;RPL22 -->
<g id="edge3" class="edge"><title>ACVR2A&#45;&gt;RPL22</title>
<path fill="none" stroke="black" d="M261.439,-359.849C260.228,-322.832 257.361,-235.181 255.896,-190.386"/>
<polygon fill="black" stroke="black" points="259.389,-190.113 255.564,-180.232 252.393,-190.342 259.389,-190.113"/>
</g>
<!-- AMER1 -->
<g id="node2" class="node"><title>AMER1</title>
<ellipse fill="none" stroke="black" cx="74" cy="-378" rx="40.4202" ry="18"/>
<text text-anchor="middle" x="74" y="-374.3" font-family="Times,serif" font-size="14.00">AMER1</text>
</g>
<!-- AMER1&#45;&gt;APC -->
<g id="edge4" class="edge"><title>AMER1&#45;&gt;APC</title>
<path fill="none" stroke="black" d="M87.916,-360.765C95.783,-351.586 105.745,-339.964 114.393,-329.875"/>
<polygon fill="black" stroke="black" points="117.13,-332.059 120.981,-322.189 111.816,-327.504 117.13,-332.059"/>
</g>
<!-- BRAF -->
<g id="node6" class="node"><title>BRAF</title>
<ellipse fill="none" stroke="black" cx="134" cy="-234" rx="33.1991" ry="18"/>
<text text-anchor="middle" x="134" y="-230.3" font-family="Times,serif" font-size="14.00">BRAF</text>
</g>
<!-- APC&#45;&gt;BRAF -->
<g id="edge5" class="edge"><title>APC&#45;&gt;BRAF</title>
<path fill="none" stroke="black" d="M134,-287.697C134,-279.983 134,-270.712 134,-262.112"/>
<polygon fill="black" stroke="black" points="137.5,-262.104 134,-252.104 130.5,-262.104 137.5,-262.104"/>
</g>
<!-- ARID1A -->
<g id="node4" class="node"><title>ARID1A</title>
<ellipse fill="none" stroke="black" cx="160" cy="-450" rx="42.3456" ry="18"/>
<text text-anchor="middle" x="160" y="-446.3" font-family="Times,serif" font-size="14.00">ARID1A</text>
</g>
<!-- ARID1A&#45;&gt;ACVR2A -->
<g id="edge6" class="edge"><title>ARID1A&#45;&gt;ACVR2A</title>
<path fill="none" stroke="black" d="M181.632,-434.155C196.138,-424.199 215.453,-410.944 231.512,-399.923"/>
<polygon fill="black" stroke="black" points="233.783,-402.609 240.048,-394.065 229.822,-396.838 233.783,-402.609"/>
</g>
<!-- PCBP1 -->
<g id="node11" class="node"><title>PCBP1</title>
<ellipse fill="none" stroke="black" cx="36" cy="-18" rx="36.096" ry="18"/>
<text text-anchor="middle" x="36" y="-14.3" font-family="Times,serif" font-size="14.00">PCBP1</text>
</g>
<!-- ARID1A&#45;&gt;PCBP1 -->
<g id="edge7" class="edge"><title>ARID1A&#45;&gt;PCBP1</title>
<path fill="none" stroke="black" d="M120.155,-443.79C89.3936,-437.64 48.133,-424.376 24,-396 -2.20358,-365.189 5,-347.447 5,-307 5,-307 5,-307 5,-161 5,-119.873 17.5653,-73.5567 26.6964,-45.3284"/>
<polygon fill="black" stroke="black" points="30.0339,-46.3837 29.8754,-35.7901 23.393,-44.1703 30.0339,-46.3837"/>
</g>
<!-- SOX9 -->
<g id="node16" class="node"><title>SOX9</title>
<ellipse fill="none" stroke="black" cx="165" cy="-378" rx="32.2457" ry="18"/>
<text text-anchor="middle" x="165" y="-374.3" font-family="Times,serif" font-size="14.00">SOX9</text>
</g>
<!-- ARID1A&#45;&gt;SOX9 -->
<g id="edge8" class="edge"><title>ARID1A&#45;&gt;SOX9</title>
<path fill="none" stroke="black" d="M161.236,-431.697C161.787,-423.983 162.449,-414.712 163.063,-406.112"/>
<polygon fill="black" stroke="black" points="166.557,-406.328 163.778,-396.104 159.575,-405.83 166.557,-406.328"/>
</g>
<!-- TP53 -->
<g id="node18" class="node"><title>TP53</title>
<ellipse fill="none" stroke="black" cx="314" cy="-234" rx="29.3479" ry="18"/>
<text text-anchor="middle" x="314" y="-230.3" font-family="Times,serif" font-size="14.00">TP53</text>
</g>
<!-- ATM&#45;&gt;TP53 -->
<g id="edge9" class="edge"><title>ATM&#45;&gt;TP53</title>
<path fill="none" stroke="black" d="M314,-287.697C314,-279.983 314,-270.712 314,-262.112"/>
<polygon fill="black" stroke="black" points="317.5,-262.104 314,-252.104 310.5,-262.104 317.5,-262.104"/>
</g>
<!-- KRAS -->
<g id="node8" class="node"><title>KRAS</title>
<ellipse fill="none" stroke="black" cx="67" cy="-162" rx="34.1708" ry="18"/>
<text text-anchor="middle" x="67" y="-158.3" font-family="Times,serif" font-size="14.00">KRAS</text>
</g>
<!-- BRAF&#45;&gt;KRAS -->
<g id="edge10" class="edge"><title>BRAF&#45;&gt;KRAS</title>
<path fill="none" stroke="black" d="M119.131,-217.465C110.283,-208.221 98.8928,-196.321 89.0173,-186.003"/>
<polygon fill="black" stroke="black" points="91.271,-183.296 81.8279,-178.492 86.214,-188.136 91.271,-183.296"/>
</g>
<!-- BRAF&#45;&gt;RPL22 -->
<g id="edge11" class="edge"><title>BRAF&#45;&gt;RPL22</title>
<path fill="none" stroke="black" d="M155.912,-220.324C174.862,-209.361 202.48,-193.383 223.748,-181.08"/>
<polygon fill="black" stroke="black" points="225.527,-184.094 232.43,-176.057 222.022,-178.035 225.527,-184.094"/>
</g>
<!-- FBXW7 -->
<g id="node7" class="node"><title>FBXW7</title>
<ellipse fill="none" stroke="black" cx="262" cy="-450" rx="40.4202" ry="18"/>
<text text-anchor="middle" x="262" y="-446.3" font-family="Times,serif" font-size="14.00">FBXW7</text>
</g>
<!-- FBXW7&#45;&gt;ACVR2A -->
<g id="edge12" class="edge"><title>FBXW7&#45;&gt;ACVR2A</title>
<path fill="none" stroke="black" d="M262,-431.697C262,-423.983 262,-414.712 262,-406.112"/>
<polygon fill="black" stroke="black" points="265.5,-406.104 262,-396.104 258.5,-406.104 265.5,-406.104"/>
</g>
<!-- NRAS -->
<g id="node10" class="node"><title>NRAS</title>
<ellipse fill="none" stroke="black" cx="67" cy="-90" rx="34.1708" ry="18"/>
<text text-anchor="middle" x="67" y="-86.3" font-family="Times,serif" font-size="14.00">NRAS</text>
</g>
<!-- KRAS&#45;&gt;NRAS -->
<g id="edge13" class="edge"><title>KRAS&#45;&gt;NRAS</title>
<path fill="none" stroke="black" d="M67,-143.697C67,-135.983 67,-126.712 67,-118.112"/>
<polygon fill="black" stroke="black" points="70.5001,-118.104 67,-108.104 63.5001,-118.104 70.5001,-118.104"/>
</g>
<!-- NOTCH2 -->
<g id="node9" class="node"><title>NOTCH2</title>
<ellipse fill="none" stroke="black" cx="449" cy="-450" rx="45.244" ry="18"/>
<text text-anchor="middle" x="449" y="-446.3" font-family="Times,serif" font-size="14.00">NOTCH2</text>
</g>
<!-- NRAS&#45;&gt;PCBP1 -->
<g id="edge14" class="edge"><title>NRAS&#45;&gt;PCBP1</title>
<path fill="none" stroke="black" d="M59.6534,-72.411C56.077,-64.3352 51.691,-54.4312 47.6714,-45.3547"/>
<polygon fill="black" stroke="black" points="50.7587,-43.6825 43.5092,-35.9562 44.3583,-46.517 50.7587,-43.6825"/>
</g>
<!-- PIK3CA -->
<g id="node12" class="node"><title>PIK3CA</title>
<ellipse fill="none" stroke="black" cx="554" cy="-450" rx="41.394" ry="18"/>
<text text-anchor="middle" x="554" y="-446.3" font-family="Times,serif" font-size="14.00">PIK3CA</text>
</g>
<!-- PTEN -->
<g id="node13" class="node"><title>PTEN</title>
<ellipse fill="none" stroke="black" cx="353" cy="-450" rx="32.2457" ry="18"/>
<text text-anchor="middle" x="353" y="-446.3" font-family="Times,serif" font-size="14.00">PTEN</text>
</g>
<!-- PTEN&#45;&gt;ACVR2A -->
<g id="edge15" class="edge"><title>PTEN&#45;&gt;ACVR2A</title>
<path fill="none" stroke="black" d="M334.585,-434.834C321.821,-425.016 304.587,-411.759 290.114,-400.626"/>
<polygon fill="black" stroke="black" points="292.027,-397.682 281.967,-394.359 287.759,-403.23 292.027,-397.682"/>
</g>
<!-- SMAD4 -->
<g id="node15" class="node"><title>SMAD4</title>
<ellipse fill="none" stroke="black" cx="160" cy="-162" rx="40.4202" ry="18"/>
<text text-anchor="middle" x="160" y="-158.3" font-family="Times,serif" font-size="14.00">SMAD4</text>
</g>
<!-- SMAD4&#45;&gt;NRAS -->
<g id="edge16" class="edge"><title>SMAD4&#45;&gt;NRAS</title>
<path fill="none" stroke="black" d="M140.277,-146.155C126.817,-136.023 108.815,-122.474 94.0229,-111.34"/>
<polygon fill="black" stroke="black" points="95.8375,-108.325 85.743,-105.108 91.6279,-113.918 95.8375,-108.325"/>
</g>
<!-- TCF7L2 -->
<g id="node17" class="node"><title>TCF7L2</title>
<ellipse fill="none" stroke="black" cx="655" cy="-450" rx="40.4202" ry="18"/>
<text text-anchor="middle" x="655" y="-446.3" font-family="Times,serif" font-size="14.00">TCF7L2</text>
</g>
</g>
</svg>
